<?xml version="1.0" encoding="utf-8"?>
<!-- Generator: Adobe Illustrator 22.0.1, SVG Export Plug-In . SVG Version: 6.00 Build 0)  -->
<svg version="1.1" id="Layer_1" xmlns="http://www.w3.org/2000/svg" xmlns:xlink="http://www.w3.org/1999/xlink" x="0px" y="0px"
	 viewBox="0 0 336 144" style="enable-background:new 0 0 336 144;" xml:space="preserve">
<g>
	<g>
		<path d="M335,63.1l-30.2-1.7V14.3h-23.5v45.8l-24.6-1.4c0.3-34.6,2.6-52.3,2.6-52.5l-11.7-1.5l-11.7-1.5
			c-0.3,1.9-6.3,47.6-0.1,139.1l23.5-1.5c-1.5-22.4-2.3-42.1-2.6-58.9l24.5,1.4v58.3h23.5v-57l28.9,1.6L335,63.1z M140.9,53.5
			l6.4-22.2c-10.7-3-20.6-4.1-29.6-4c-0.8-12.1-1.5-19.9-1.6-20.9L92.7,8.6c0,0.2,0.8,8.6,1.6,21.8c-16.4,4.3-27.5,11.9-32,15.5
			l14.7,18c2.8-2.2,9.1-6.6,18.4-9.7c0.8,25.2,0.7,57.1-2.7,86.1l23.4,2.7c3.7-31.7,3.7-66.1,2.8-92.5
			C125.5,50.4,132.9,51.2,140.9,53.5z M168.8,5.8c-1.4,4.1-34.1,100.2-34.1,135.7h23.5c0-8.6,2.5-22.5,6.3-38.1
			c10.7-1.7,20.8-1.1,27.1-0.3L202,144l22.8-5.6L191.3,6.7L168.8,5.8z M170.7,79.5c2.6-9.3,5.3-18.7,8-27.5l7,27.4
			C181.1,79.2,176.1,79.1,170.7,79.5z M70.9,14.7L52.7,0C36.3,19.6,11.7,35,11.5,35.2L0,42.3l44.3,51c-11.4,8.3-29.2,22-39,33.9
			l18.3,14.5c12.7-15.4,44.2-36.6,44.6-36.8L79,97.7L35.1,47.1C44.9,40,59.3,28.4,70.9,14.7z M312.5,118.1v22.9H336v-22.9H312.5z"/>
	</g>
</g>
</svg>
